PathFileType	4	(X/Y/Z)	Walk1_0-155.trc
DataRate	CameraRate	NumFrames	NumMarkers	Units	OrigDataRate	OrigDataStartFrame	OrigNumFrames
30	30	7	22	m	30	0	155
Frame#	Time	Hip			RHip			RKnee			RAnkle			RBigToe			RSmallToe			RHeel			LHip			LKnee			LAnkle			LBigToe			LSmallToe			LHeel			Neck			Head			Nose			RShoulder			RElbow			RWrist			LShoulder			LElbow			LWrist		
		X1	Y1	Z1	X2	Y2	Z2	X3	Y3	Z3	X4	Y4	Z4	X5	Y5	Z5	X6	Y6	Z6	X7	Y7	Z7	X8	Y8	Z8	X9	Y9	Z9	X10	Y10	Z10	X11	Y11	Z11	X12	Y12	Z12	X13	Y13	Z13	X14	Y14	Z14	X15	Y15	Z15	X16	Y16	Z16	X17	Y17	Z17	X18	Y18	Z18	X19	Y19	Z19	X20	Y20	Z20	X21	Y21	Z21	X22	Y22	Z22
1	0.0333333333333333	-2.5733287445777644	0.8322392329721767	0.3922715969030158	-2.5683500260881145	0.7990642942301642	0.48783896905745266	-2.5528132913827766	0.43565850316925975	0.5084080071290482	-2.573782118266166	0.08290462371968937	0.5091485008988115	-2.4020326325067725	-0.0020474907217862817	0.5502856599425923	-2.479187696185136	-0.022597894387456862	0.6085131608355794	-2.60969216494313	0.018172542426664103	0.4980279228007881	-2.5738484689324297	0.7985161180702749	0.30929008470807146	-2.5472183580774406	0.4496501373344674	0.29576174577351044	-2.5721054275978954	0.08061749238313659	0.2850228096331558	-2.3813866095669365	-0.006876930729420799	0.28009045551262257	-2.4189428361625858	-0.013383860711525617	0.20869088155109902	-2.6246191807316563	-0.0011330503744299545	0.29282462241379753	-2.5631310682387456	1.5241309905524034	0.35068064480199773	-2.5425678352629175	1.7856350591165258	0.37113431188629153	-2.4153139192585127	1.6575231125296033	0.3751525885643273	-2.5582261989394914	1.3945856892814832	0.5846565377285166	-2.5584179384972865	1.0955407609031877	0.6284329142641373	-2.4834566810692715	0.8574680985153174	0.6125763685261726	-2.564464456019181	1.3969170968545708	0.20818711412718155	-2.5465566612099413	1.094942110762902	0.1556575070736762	-2.4838869271441593	0.8535383575317239	0.17104328833003585
2	0.0666666666666666	-2.57585259038312	0.8344316582724445	0.39242998569876286	-2.5702135901783736	0.8025845896679697	0.48749979591646153	-2.553441726967084	0.4374103152658901	0.5081400329392355	-2.5730940158706685	0.08570746109162962	0.5113600944798585	-2.4188639441062603	-0.007246520869997965	0.5440106168533385	-2.4824748407334982	-0.020375307280788398	0.6083307425655958	-2.6241094669230787	0.011596376243786939	0.49895443192564365	-2.575031520062384	0.8012566210668626	0.3078040803971385	-2.547235661033604	0.45080879467735824	0.29484072111286513	-2.571519567625331	0.08090708423331205	0.2842852855742319	-2.381352003458762	-0.007887697357089671	0.28025751940616334	-2.4202093027406706	-0.013740997508619537	0.2086564453089397	-2.62403092489957	-0.00046741566060023846	0.2963737040144187	-2.549999327769372	1.514502359484652	0.36825297209419794	-2.538797463017441	1.7857091243679815	0.36968710005709865	-2.4184554448942244	1.6570897882767286	0.36747693477143917	-2.55465096568203	1.3930773215616146	0.5842468393228893	-2.5535504892774368	1.0943645654991077	0.6261467285279608	-2.4825336238596356	0.8564680032576965	0.611774227464387	-2.5648686031542125	1.3981162803906408	0.2059385021664738	-2.5455947337942755	1.0968261091754703	0.1546050954563991	-2.4822330277336166	0.8550177497632648	0.16958336982138902
3	0.1	-2.5780348302694867	0.8361609193445549	0.39223507573089605	-2.571894554976268	0.8056114063634631	0.48700384290394755	-2.5542875988612255	0.4387484279465087	0.5079487277441004	-2.5722194438736636	0.08822626510364723	0.5132350509290037	-2.4322014009630344	-0.011209668774921777	0.5394730693822657	-2.4847061476470307	-0.01874977386626464	0.6077210703409361	-2.636133507382195	0.005974803610116706	0.4996811240556901	-2.575981275650167	0.8035609791288701	0.30635651811831616	-2.546866711214026	0.4518339846802972	0.29397775572969587	-2.5709551901717647	0.08119867967603872	0.2838336061946772	-2.3812057447581916	-0.008533036275783836	0.28026774306448266	-2.421181723429078	-0.013794054501887289	0.20860320264366813	-2.6235478531203924	-3.23577999488199e-05	0.299265162821111	-2.5392151552349214	1.5068393605029753	0.3817129955247341	-2.535397989615706	1.7857593453823983	0.3682414203122264	-2.4219940654702086	1.6570704522169541	0.3599845269225201	-2.551997712777179	1.3921010773281404	0.5828992338577079	-2.550650291263244	1.0938331853455114	0.6236602602242738	-2.4817357750629805	0.85551414414794	0.610958751214339	-2.565085084442159	1.3990309164371562	0.20352469926204358	-2.544744115129969	1.0982820334834067	0.1532958243506753	-2.4807201698379195	0.856095531177095	0.16784379669228536
4	0.1333333333333333	-2.579607675547753	0.8371884827077555	0.39145157384539697	-2.573144529067162	0.8078545411027285	0.4861644217640548	-2.5553467569485053	0.4395062014416316	0.5077749590364933	-2.5709262881474917	0.09025960643627173	0.5145769232904887	-2.440345129898469	-0.01339097409682276	0.5374391490453502	-2.485144904756871	-0.01786306351285995	0.6065401714588182	-2.6441571616992143	0.0019391744577253395	0.50009548356412	-2.5765408212333107	0.8051730760884956	0.3048302027973263	-2.545979444140265	0.4526139855160216	0.2931157269050198	-2.5704626415714515	0.08146486836944143	0.28372379505668927	-2.3808817994881233	-0.008691584116859469	0.28006057846311	-2.4217667764105535	-0.013440935247602873	0.20848463839656992	-2.6232033871679006	6.474564228621058e-05	0.30115515853188	-2.5319366208248786	1.502081403406319	0.38902373857767036	-2.5325587410094283	1.78574377798627	0.3666853823454149	-2.4257153738551804	1.6575451013479008	0.35295020717353204	-2.5511074452190305	1.3920780839504974	0.5796869156341996	-2.5497524807762972	1.093946867889844	0.621002936328574	-2.4810585999027173	0.8546449150001801	0.6101131133959004	-2.565008625988254	1.3994669182213608	0.20086708300595446	-2.5440668945248794	1.0990647577788748	0.15150180399283197	-2.4794872477258583	0.8565644246307371	0.16570771358774697
5	0.1666666666666666	-2.580462366135314	0.8375166073749735	0.38999733997276215	-2.5737192594860656	0.8092762568334545	0.48484783827293193	-2.5564224664611785	0.43977943101533373	0.5075058737824801	-2.569114550967462	0.0917283944160169	0.5154100972830652	-2.4435325923708167	-0.013967290615908616	0.5375181791970719	-2.4836425488183	-0.01734955921840178	0.6051644823260162	-2.6483609497137635	-0.0005319957578047436	0.5001658375952711	-2.576648234810397	0.8060580103038814	0.3030107814942007	-2.544744863346236	0.4530837093814761	0.29215785521902404	-2.5700929488373663	0.08163500556495212	0.28380596012193543	-2.3804003396653837	-0.008479237252131391	0.27966094349348425	-2.42203007525552	-0.012802223520367651	0.20829643103865197	-2.6229827669439376	-0.00012868783545573687	0.30206290611899045	-2.528203334195208	1.5001648152387932	0.3901791386437877	-2.5302044404852566	1.785637912463886	0.3648311359539151	-2.428416948485799	1.6581662472930665	0.346921288724461	-2.5526476592881	1.3933528995996434	0.5736528116753972	-2.549682203746188	1.0943223817663712	0.6183067339348447	-2.4803967084134055	0.8539127665618077	0.6092142823898545	-2.5646094446486236	1.3993831567059405	0.19794409267761198	-2.5435562468270447	1.099162491851731	0.1490857460865459	-2.4786571582233177	0.8564406004435111	0.16322454147387563
6	0.2	-2.5806668059467737	0.8372860357929608	0.387848955738952	-2.5734492416655033	0.8100296571137671	0.48299013816615627	-2.557278428613819	0.4398127416889416	0.5068942579252248	-2.567202119558129	0.09254571051930793	0.5158786095752376	-2.4429795248006863	-0.013500923830905204	0.5386269645822219	-2.4806635834709128	-0.0167993366304916	0.6041531410068388	-2.6504522291161168	-0.0020346905911072404	0.49988896053278203	-2.5763015866110197	0.8063428568301451	0.30070330220897723	-2.5434365941660495	0.4532271979340938	0.29102043222456553	-2.5698320347809815	0.08162027123218936	0.2838858335342541	-2.379870111381341	-0.00810574389636982	0.2791478384362206	-2.4220549236230107	-0.012095292684085504	0.20811921093134292	-2.622840950231076	-0.00048271491170539854	0.30221386834960856	-2.5275423626452795	1.5006143595665102	0.38601862723631897	-2.5280148897548007	1.785468412969983	0.3624532994526939	-2.4284622827900537	1.6583985091148457	0.3424638876562944	-2.556888105764962	1.3961746156717207	0.5639961486653641	-2.5494513172317963	1.0946864003501937	0.6155922815845579	-2.4795989722437053	0.8533594688357123	0.6081884054347668	-2.5638493573078223	1.398900703337983	0.1947078400781982	-2.5431699687318883	1.0987141918921066	0.14602828061342712	-2.478294607907001	0.8558767336064261	0.16044518830473026
7	0.2333333333333333	-2.580376338082129	0.8366982946061089	0.38498985453635587	-2.572269757383698	0.8103559149084208	0.4805506175516515	-2.557759222095513	0.4398608745197774	0.505457689818778	-2.566179873208104	0.09245809667930864	0.5160378665829501	-2.4402933753123577	-0.012623119831579559	0.5398550256694884	-2.4772739460272915	-0.016255527135052947	0.6037051838076151	-2.6516745979811676	-0.0030734462550293883	0.49930592576036537	-2.575515594247549	0.8062469387805156	0.29778424393179814	-2.5421999725387545	0.4530773475152171	0.2896020626495129	-2.5696051212755298	0.08138335585325174	0.28382986680649536	-2.3794270098602697	-0.007755419094117812	0.278639288283273	-2.4218912594897786	-0.011481298937087157	0.20803848714364365	-2.6227160165454912	-0.0008808369377958149	0.30186133148713246	-2.5292781431350795	1.5029126509704587	0.3775225001476444	-2.525586930150607	1.7852783574161253	0.35931553540714845	-2.42513821188721	1.6579195876334407	0.33955213831294095	-2.5632984022060423	1.4003980550887465	0.5508171086371219	-2.5485788141524655	1.0949810206879453	0.6127601271438993	-2.4785013487244463	0.8529762162370113	0.60690218362133	-2.5626917904259274	1.3981988562208876	0.19109732903219817	-2.5428691391551697	1.097906073135659	0.14238696283458216	-2.4783478425774645	0.8550548606633596	0.15733938431162742
